<?xml version="1.0" encoding="utf-8"?>
<!-- Generator: Adobe Illustrator 25.0.0, SVG Export Plug-In . SVG Version: 6.00 Build 0)  -->
<svg version="1.1" id="Layer_2_1_" xmlns="http://www.w3.org/2000/svg" xmlns:xlink="http://www.w3.org/1999/xlink" x="0px" y="0px"
	 viewBox="0 0 450 450" style="enable-background:new 0 0 450 450;" xml:space="preserve">
<path d="M434.7,218.9c-3.6-2.1-7-4.5-10.3-7c-6.6-5.2-12.7-11.2-17.9-17.8c-5.1-6.4-9.5-13.5-12.5-21.2c-2.9-7.6-4.1-15.8-4.4-23.9
	c-0.4-15.8,2.7-32.2,9.7-46.4c0.8-0.9,1.1-2.2,0.8-3.4c-0.8-3.8-4.7-2.7-7.4-2.4c-4.6,0.5-9.2,0.7-13.9,0.6
	c-8.9-0.3-17.9-1.8-26.4-4.3c-7.8-2.3-15.5-5.6-22.3-10.2c-6.4-4.3-11.8-10-16.5-16.2c-6.3-8.2-11.3-17.4-14.9-27.1
	c-1.8-4.9-3.3-10-4.2-15.2c-0.3-1.8-0.4-3.7-2.2-4.6c-1.4-0.8-3.1-0.5-4.3,0.6v0c-12.1,12.1-27.9,20.7-44.4,25.1
	c-7.7,2-15.6,3.1-23.5,2.5c-8.6-0.7-17.1-3.1-25.1-6.3c-7.9-3.2-15.4-7.2-22.3-12.2c-3.4-2.5-6.6-5.1-9.7-8.1
	c-0.9-0.9-1.7-1.9-3-2.1c-1.4-0.2-2.9,0.4-3.6,1.6c-0.7,1.1-0.7,2.7-1,3.9c-0.4,2.2-0.9,4.4-1.6,6.6c-1.2,4.2-2.6,8.4-4.4,12.5
	c-3.4,8-7.9,15.7-13.2,22.6c-4.5,5.9-9.7,11.4-15.8,15.7c-6.4,4.5-13.6,7.7-21,10c-8.2,2.6-16.7,4.2-25.2,4.8
	c-4.4,0.3-8.8,0.3-13.3,0c-2.2-0.2-4.4-0.4-6.6-0.7c-1.8-0.3-3.5,0.2-4.3,1.9c-1.3,1.3-1.2,3.1-0.5,4.6c1,1.9,1.9,3.9,2.7,5.9
	c1.6,3.9,2.9,7.9,4,11.9c2.1,8,3.3,16.3,3.5,24.5c0.2,8.3-0.5,16.8-3,24.8c-2.3,7.6-6.2,14.7-10.8,21.1c-8.6,12.3-20,22.9-33.2,30.1
	h-0.3c-1.9,0-3.5,1.5-3.6,3.4c0,0.1,0,0.3,0,0.4c0,0.2,0,0.4,0,0.6c0,3,4.1,4.2,6.3,5.5c3.6,2.1,7,4.4,10.3,7
	c6.7,5.2,12.7,11.2,17.9,17.8c5.1,6.4,9.5,13.5,12.5,21.2c3,7.6,4.2,15.8,4.4,24c0.4,15.6-2.6,31.7-9.4,45.8
	c-1.3,1.1-1.7,2.9-0.9,4.4c1.3,3.7,6.1,2,8.9,1.7c4.6-0.5,9.3-0.5,13.9-0.3c8.9,0.4,17.8,2,26.3,4.7c7.7,2.4,15.2,5.7,21.8,10.4
	c6.4,4.5,11.8,10.4,16.4,16.6c9.1,12.3,15.8,26.8,18.4,41.9c-0.2,1.5,0.6,3,2,3.7c1.2,0.7,2.6,0.6,3.8-0.1c0.1,0,0.5-0.4,0.6-0.5v0
	c8.2-8.2,18.1-14.7,28.6-19.5c10.7-4.9,22.5-8.4,34.3-8.4h0h0c11.5,0,23,3.3,33.4,7.9c10.5,4.6,20.4,11,28.7,19
	c0.7,1.3,2.2,2,3.7,1.8c1.3-0.1,2.5-1,3-2.3c0,0,0,0,0,0c0.1-0.1,0.2-0.6,0.2-0.7l0,0c2.7-17.1,10.7-33.8,21.7-47.1
	c4.8-5.9,10.4-11.1,16.9-15.1c7.2-4.4,15.1-7.4,23.2-9.5c7.3-1.9,14.9-3,22.4-3.3c3.9-0.2,7.7-0.1,11.6,0.2c2,0.2,4,0.4,6,0.7
	c1.5,0.2,2.9-0.5,3.7-1.8c1.4-1.6,0.9-3.3,0.1-4.9c-1-1.9-1.8-3.9-2.7-5.9c-1.6-3.9-2.9-7.9-3.9-11.9c-2.1-8-3.2-16.2-3.4-24.5
	c-0.2-8.3,0.6-16.9,3.1-24.9c2.4-7.6,6.4-14.7,11-21.1c8.7-12.2,20.2-22.8,33.4-29.9c1.9-0.1,3.5-1.7,3.5-3.6c0-0.2,0-0.3,0-0.5
	C441,221.3,437,220.2,434.7,218.9z M288.2,41.9c0,0,1.9-4.9,3.5-0.5c3.1,8.6,7.3,16.8,12.4,24.3c5.6,8.3,12.4,16.1,20.5,22
	c8,5.8,17.4,9.8,26.9,12.5c9,2.6,18.2,4.3,27.6,4.3c3.7,0,1.1,3.1,1.1,3.1l-27.6,20.1c-8.4,1.2-17.1-0.6-25.1-2.9
	c-7.7-2.3-16-5.2-22.6-10c-6.3-4.6-11.5-11.2-15.9-17.5c-4.8-6.9-9.4-14.7-11-23c0-0.1-0.1-0.3-0.1-0.4L288.2,41.9z M346.3,305.8
	c0.5,3.3-1.8,1.6-1.8,1.6L326.1,294c-2.4-4.8-2.8-11-3-16.3c-0.2-6.3,0.2-12.8,2-19c1.7-6,4.8-11.6,8.4-16.7
	c3.5-4.9,7.6-10,12.7-13.4h22.4c0,0,2.9,0.7,0.8,2.8c-4.2,4.2-7.9,8.8-11.3,13.6c-4.2,6-8.3,12.5-10.5,19.5
	c-2.2,6.8-2.7,14.2-2.8,21.3C344.7,292.4,345,299.2,346.3,305.8z M104.5,304.3c2.4-9.3,1.4-19.3,0.2-28.7c-0.5-4.2-1.3-8.4-2.9-12.4
	c-1.7-4.3-4-8.4-6.4-12.3c-4.2-6.7-9.1-13.1-14.8-18.7c-2.5-2.5,1.6-3.6,1.6-3.6h20.3c0,0,0,0,0,0c4.7,2.3,8.6,7.1,11.8,11.2
	c4,5.1,7.5,10.7,9.7,16.7c2.2,5.8,2.9,12.2,3,18.4c0.1,6.1-0.3,12.8-2.4,18.5l-17.5,12.7C107.3,306.1,103.3,308.8,104.5,304.3z
	 M103.9,145.7c0-3.3,3.7-1.6,3.7-1.6l16.1,11.7c2.1,5.1,2.9,10.6,3.1,16.1c0.3,6.5-0.2,13.1-1.9,19.4c-1.7,6-4.8,11.7-8.4,16.8
	c-3.5,4.9-7.5,9.9-12.5,13.3H82.8c0,0-4.8,0-1.5-3.3c4-4,7.6-8.6,10.8-13.3c4-5.9,8-12.3,10.2-19.1c2.2-6.9,2.7-14.5,2.8-21.7
	C105.3,157.8,104.9,151.7,103.9,145.7z M316.4,284.6c0.5,2.6-1.9,0.9-1.9,0.9l-10.5-7.7c-4.2-8.3-4-19.2-1.2-27.9
	c2.7-8.5,8.5-16.8,16.3-21.4h12.5c0,0,3.4,0.5,0.8,3.1c-6.4,6.4-11,14.9-13.8,23.5C315.6,264.5,315.1,274.8,316.4,284.6z M134.2,283
	c0.9-9.1,0.2-18.7-2.6-27.4c-2.8-8.5-7.8-16.4-13.7-23.2c-3.3-3.3,1.5-3.9,1.5-3.9h10.7c7.7,4,13.6,12,16.6,19.9
	c3.5,8.9,3.9,20,0.1,28.9l-10,7.2C136.8,284.6,133.8,287.1,134.2,283z M133.9,168c0-4.6,3.2-2.5,3.2-2.5l8.9,6.5
	c4.2,8.1,4.1,19,1.5,27.5c-2.6,8.6-8.5,17.1-16.3,21.9H120c0,0-5.1-0.2-2-3.4c6.4-6.4,10.9-14.9,13.6-23.6
	C134.1,186,134.7,176.8,133.9,168z M293.5,183.9c0,6.1,0.4,12.2,2.3,17.9c2.1,6.3,5.2,12.5,9.9,17.1c2.2,2.2-1.4,2.4-1.4,2.4H292
	c-5.4-2.9-8.4-8.2-10.3-13.8c-2.1-6.1-3.4-12.8-0.6-18.9l9.3-6.8C290.4,181.9,293.5,180.2,293.5,183.9z M293.8,267.4
	c0.6,3.5-2.1,1.6-2.1,1.6l-10.3-7.5c-2.9-5.9-2-12.4,0-18.4c1.9-5.8,4.7-11.4,10.1-14.5h12.9c0,0,3.3,0,0.9,2.5
	C296,240.4,291.7,254.3,293.8,267.4z M272.4,254.9l-30.8-22.4c-1-1.8-1.5-2.9,1.2-3.9h38c-2.8,3.5-4.6,7.6-6,11.8
	C273.1,245.1,272.1,250,272.4,254.9z M177.8,251.4c0-3.5-1.1-6.9-2.2-10.2c-0.9-2.6-1.9-5.1-3.2-7.5c-2.8-4.8,3.1-5.1,3.1-5.1h33.1
	c1.7,0.5,2.2,1.9,0.9,3.2L181,252.5C181,252.5,177.8,255.2,177.8,251.4z M156.5,266.5c0.9-6.1-0.3-12.5-2.3-18.4
	c-1.8-5.5-4.6-10.6-8.2-15.1c-3.5-3.5,0.5-4.5,0.5-4.5h11.3c5.4,2.9,8.5,8.2,10.5,13.8c2.1,6,3.4,12.7,0.7,18.7l-9.1,6.6
	C160,267.8,156,269.9,156.5,266.5z M145.6,217.8c7.8-9.8,11.7-22.2,10.6-34.7c0-3.5,4-0.8,4-0.8l8.3,6.1c3,5.9,2.1,12.4,0.1,18.5
	c-1.8,5.7-4.6,11.3-10,14.5h-11.1C147.6,221.4,142.7,220.8,145.6,217.8z M177.6,198.7c0-3.3,2.5-1.9,2.5-1.9l30.3,22l0,0
	c1.4,1.3,1.2,1.8-1.4,2.5h-33.7c0,0-5.8,0.4-3.5-3.7c1.4-2.6,2.6-5.3,3.5-8.1C176.5,206.1,177.4,202.4,177.6,198.7z M272.4,199.5
	c0,3.2,1.1,6.3,2.1,9.3c1.5,4.5,3.5,8.8,6.5,12.5h-39.6c-1.4-0.7-2.3-1.6-0.5-3.4l27.7-20.1C268.5,197.8,272.4,194.7,272.4,199.5z
	 M237.5,174.6l-11,33.8c-1.3,1.3-1.7,1.3-3.2-0.2l0,0l-10.7-32.9c0,0-1.6-5.1,2.5-3.3c3,1.3,6.5,1,9.8,1c3.7,0,7.4-0.3,10.9-1.3
	C238.7,170.5,237.5,174.6,237.5,174.6z M223.5,241.5L223.5,241.5c1.3-1.3,1.3-1.5,3.2,0.5l0,0l12.1,37.2c-4.4-1.6-9-2.1-13.6-2.1
	h-0.1c-4.7,0-9.4,0.5-13.9,2.2L223.5,241.5z M264.7,191.7l-28.3,20.6l0,0c-2.2,0.9-2.6-0.5-2.6-2.6l0,0l10.9-33.6c0,0,0.1-3.1,3.2,0
	c2.4,2.4,4.9,4.8,7.6,6.9c2.8,2.1,5.9,3.9,9.1,5.2C268,188.9,264.7,191.7,264.7,191.7z M245.7,149.5l-3.5,10.9
	c-4.7,4.3-11,5.4-17.2,5.4c-6.2,0-12.5-1-17.2-5.4l-3.3-10c0,0-1.6-5.2,2.8-3.2c11.4,4.4,24,4.4,35.4,0
	C246.2,145.8,245.7,149.5,245.7,149.5z M202,176.1c2-3.7,3.5,0.5,3.5,0.5l11,34c0,2.5-1.1,1.8-2.7,1.8l0,0l-29-21.1
	c0,0-2.6-2,0.6-3.2c3.5-1.3,6.6-3.3,9.6-5.5C197.5,180.6,199.9,178.5,202,176.1z M186.3,257.6l27.9-20.3c1.8,0,2,0.5,2,3l0,0
	l-10.8,33.3c0,0-1.1,3.5-3.3,0.4c-2-2.8-4.9-4.8-7.6-6.8c-2.8-2-5.7-3.8-8.8-5.1C182.3,261.3,186.3,257.6,186.3,257.6z M204.3,300.5
	l3.5-10.8c4.7-4.4,11-5.5,17.3-5.5h0h0.1c6.1,0,12.3,1,17,5.2l3.7,11.3c0,0,1.2,3.8-2.1,2.4c-5.9-2.4-12.2-3.8-18.6-3.8h0
	c-6.3,0-12.5,1.3-18.3,3.7C202.7,304.7,204.3,300.5,204.3,300.5z M245.7,277L234,240.8l0,0c0-2.1,0.7-2.6,3.1-2.6l0,0l30.9,22.5
	c-4.7,1.3-9,3.8-12.8,6.7C251.5,270.1,248.2,273.2,245.7,277z M286.4,175.9l-9.5,6.9c-6.6,0.8-12.5-2.3-17.6-6.1
	c-4.8-3.6-9.1-8-10.3-14.1l4.2-12.9c0,0,1-3.1,2.7,1.1c4.8,12.1,17.5,19.1,30.3,21.9C289.3,172.7,286.4,175.9,286.4,175.9z
	 M254.2,123.1l-3.6,11c-6.7,6.2-16.7,9.2-25.7,9.2c-9,0-19-3-25.7-9.2l-3.3-10.3c0,0-0.8-4.6,3.1-2.8c8,3.7,17.1,5.6,25.9,5.7
	c9.2,0,18.6-2.4,27.1-6.2C255.8,119.2,254.2,123.1,254.2,123.1z M164.9,172.4c11.8-3.1,22.1-10.5,28.7-20.7c1.5-3.8,3.9,0.3,3.9,0.3
	l3.5,10.7c-1.2,6.1-5.5,10.5-10.3,14.1c-5.1,3.8-11,6.9-17.6,6.1l-9.4-6.8C163.7,175.9,159.6,173.1,164.9,172.4z M177.5,158.5
	c-7.4,5.5-17.6,9.1-26.8,7.9l-9-6.5c0,0-3.7-3.6,0-3.6c9.5,0,18.5-5.6,26-11.2c7.2-5.3,13.2-12.5,17.7-20.3c1.2-2.9,3.5,0.6,3.5,0.6
	l3.5,10.9C190.7,145.1,184.6,153.3,177.5,158.5z M141.4,290.2l9.1-6.6c9.1-1.3,19.3,2.2,26.6,7.5c7.2,5.2,13.5,13.5,15.4,22.3
	l-3.4,10.4c0,0-2,6.2-3.5,1.5c-2.8-8.8-10.8-15.4-18.2-20.7c-7.4-5.3-16.3-8.9-25.3-10.8C138,293.1,141.4,290.2,141.4,290.2z
	 M193.8,298.6c-6.8-10.7-17.6-18.3-29.9-21.2c-3.8-1-0.3-3.3-0.3-3.3l9.4-6.8c6.4-0.9,12.2,2,17.3,5.7c5,3.6,9.4,8.1,10.7,14.3
	l-3.6,11.2C197.4,298.4,195.4,301.8,193.8,298.6z M195.5,327.5l3.7-11.5c6.7-6.3,16.8-9.4,25.8-9.4h0h0c8.9,0,18.8,3,25.5,9.1
	l3.8,11.6c0,0,1.8,4.6-2.5,2c-8.4-3.7-17.7-6-26.8-6h0c-9.5,0-19.1,2.6-27.8,6.5C193.5,331.4,195.5,327.5,195.5,327.5z M255.9,299.2
	c-0.7,1.1-3.1-0.4-3.1-0.4l-3.7-11.4c1.2-6.1,5.5-10.6,10.3-14.2c5.1-3.8,10.9-6.9,17.5-6.1l10.3,7.5c0,0,2.4,2.6-0.8,2.6
	C273.7,280.2,262.7,288.2,255.9,299.2z M272.6,291.4c7.3-5.5,17.4-9,26.6-7.9l9.9,7.2c0,0,3.2,2.2-0.2,2.8
	c-9.4,1.9-18.9,5.6-26.6,11.4c-7.4,5.5-13.5,12.9-18.1,20.9c-1.9,4.1-2.9-0.2-2.9-0.2l-3.8-11.8C259.3,305,265.5,296.7,272.6,291.4z
	 M331.5,221.4h-11.8c-7.7-4.1-13.6-12.2-16.6-20.3c-3.3-8.9-3.7-19.8,0.2-28.6l9.6-7c0,0,3.4-0.6,2.8,2.3
	c-1.6,8.8-0.1,18.2,2.6,26.7c3,9,8.1,17.7,14.8,24.4C335.7,221.3,331.5,221.4,331.5,221.4z M304.3,147.7c-6.1-1.9-12.1-4.5-17.3-8.2
	c-5-3.6-9.1-8.3-12.7-13.2c-3.4-4.7-6.9-10.2-8.3-15.9l7-21.7c0,0,1.1-3.2,2.2-0.3c3.1,6.5,7.1,12.6,11.6,18.3
	c4.3,5.4,9,11,14.8,14.8c5.7,3.8,12.2,6.5,18.7,8.7c5.6,1.9,11.4,3.7,17.4,4.4c4.4,0.5,1.2,3.2,1.2,3.2l-17.5,12.7
	C315.8,151,309.6,149.4,304.3,147.7z M264.8,125.1c3.9,8.2,10.7,15,18,20.3c7.5,5.4,16.6,9,25.7,10.9c3.5,0,0.5,3.2,0.5,3.2
	l-9.5,6.9c-9.1,1.2-19.1-2.3-26.4-7.6c-7.3-5.3-13.6-13.6-15.4-22.5l3.5-10.9C261.1,125.4,262.9,121.2,264.8,125.1z M265.1,89.7
	l-6,18.5c-4.2,3.7-10,5.9-15.2,7.7c-6,2.1-12.5,3.5-18.9,3.5c-6.1,0-12.2-1.3-18-3.2c-5.5-1.8-11.6-4.2-16.1-8l-6.2-19.2
	c0,0-0.7-4.7,2.7-3.1c5.2,2.5,10.4,4.6,15.9,6.3c7,2.1,14.4,4,21.8,4c7,0,14.1-1.7,20.8-3.7c5.4-1.6,10.7-3.7,15.9-6.1
	C266.8,84,265.1,89.7,265.1,89.7z M177.5,90.4l6.5,20c-1.3,5.4-4.6,10.6-7.8,15.2c-3.7,5.2-8,10.2-13.2,14c-5,3.6-10.8,6.2-16.6,8
	c-5.6,1.8-11.9,3.5-17.8,2.9l-16-11.6c0,0-3.8-3.4,0.6-4.4c5.6-1.2,11.2-2.4,16.6-4.3c6.7-2.3,13.7-5.2,19.5-9.4
	c5.6-4.1,10.3-9.6,14.5-15c3.8-4.9,7.2-10,10-15.5C175.8,86.5,177.5,90.4,177.5,90.4z M111.3,312.1l17.1-12.5
	c5.5-0.7,11.7,0.9,16.9,2.5c6.1,1.8,12.2,4.4,17.4,8.1c5,3.5,9.2,8.2,12.8,13.1c3.5,4.8,7.1,10.3,8.5,16.1l-6.4,19.8
	c0,0-1.8,4.1-3.8,0.4c-3.1-5.7-6.6-11.1-10.6-16.2c-4.3-5.4-9-10.9-14.8-14.8c-5.7-3.8-12.2-6.5-18.7-8.7c-5.9-2-12-3.6-18.1-4.5
	C107.4,315.4,111.3,312.1,111.3,312.1z M184.5,361.6l6.4-19.6c4.2-3.8,10.1-6.1,15.4-7.9c6-2.1,12.5-3.5,18.9-3.5h0h0
	c6.1,0,12.2,1.3,18,3.2c5.5,1.8,11.4,4.1,15.9,7.9l6.8,20.9c0,0,1.5,3.9-2.3,2c-5.3-2.8-10.9-4.9-16.6-6.7c-7-2.1-14.4-4-21.8-4h0
	c-7,0-14.1,1.8-20.8,3.8c-6.3,1.9-12.5,4.2-18.3,7.4C182.4,366.8,184.5,361.6,184.5,361.6z M272.7,360.2l-6.6-20.5
	c1.2-5.4,4.4-10.5,7.5-15c3.6-5.3,8-10.3,13.1-14.1c4.9-3.7,10.7-6.3,16.6-8.2c5.6-1.8,12.1-3.6,18-3l17.5,12.7c0,0,2.9,2.3-0.6,3.1
	c-6.2,1.4-12.5,2.6-18.5,4.7c-6.7,2.4-13.6,5.2-19.3,9.4c-5.6,4.2-10.3,9.7-14.5,15.2c-3.8,4.9-7.2,10.2-9.9,15.7
	C273.8,364.8,272.7,360.2,272.7,360.2z M368.8,221.4h-21.7c-4.7-2.5-8.7-7.3-11.9-11.5c-3.9-5.1-7.4-10.7-9.6-16.8
	c-2.1-5.8-2.8-12.2-2.8-18.3c0-6,0.3-12.6,2.6-18.3l17.7-12.9c0,0,3-1.7,2.5,2.4c-1.3,9.4-1.4,19.2-0.2,28.6
	c0.5,4.2,1.3,8.4,2.8,12.3c1.7,4.3,4,8.4,6.4,12.3c4.4,7,9.6,13.6,15.5,19.4C373.1,221.7,368.8,221.4,368.8,221.4z M174.3,39.2
	c6.8,3.5,13.4,7.5,20.5,10.1c9.6,3.6,19.9,6,30.2,6c10.3,0,20.6-2.4,30.2-6c8.4-3.1,16.1-7.7,23.8-12.3c3.9-2.3,2.2,2.9,2.2,2.9
	L271,71.6c-6.1,5.8-14.3,9.4-22.1,12.2c-7.6,2.7-16,5.2-24.1,5.1c-7.9-0.1-16-2.4-23.4-5c-7.8-2.7-15.8-6.3-22-12
	c-0.1-0.1-0.2-0.2-0.3-0.3l-9-27.9C170,43.7,167.9,35.9,174.3,39.2z M74.9,104.4c8.4,0,16.6-2.1,24.6-4.4c7.3-2.2,14.4-5.1,20.9-9
	c6.1-3.6,11.4-8.2,16.2-13.4c8.5-9.3,15.5-20.2,20.1-32c2.8-7.3,6.4,0.5,6.4,0.5l9,27.8c-1.5,8.2-5.9,15.9-10.6,22.7
	c-4.5,6.6-9.9,13.5-16.4,18.3c-6.4,4.7-14.6,7.6-22.1,9.8c-8.1,2.4-17.1,4.3-25.6,3.1l-22.5-16.4C74.9,111.4,67.5,104.4,74.9,104.4z
	 M32.5,216.6c4.7-3.8,9-8.2,12.8-12.6C56,191.7,64,177.3,66.2,161.1c1.9-13.6,0.7-27.8-2.6-41.3c-2.4-10,4.9-4.1,4.9-4.1l23.9,17.4
	c0.5,1.6,1.4,3.1,2,4.8c0.7,2.1,1.3,4.2,1.8,6.3c0.9,4.4,1.4,8.8,1.6,13.2c0.4,8.2,0.1,17-2.1,25c-2,7.3-6.6,14.2-11.1,20.3
	c-5,6.9-10.8,13.6-18.1,18.2c-0.3,0.2-0.5,0.3-0.8,0.5H34.4C34.4,221.4,25.9,222,32.5,216.6z M64.5,330.4
	c3.9-13.3,4.2-27.6,2.1-41.2c-2.5-15.9-10.5-30-21.1-42c-3.8-4.4-8.1-8.5-12.7-12.3c-6.6-4.3,1.2-6.2,1.2-6.2h30
	c3.3,2,6.4,4,9.3,6.6c3.2,2.9,6.2,6.1,8.9,9.5c5.2,6.5,10.2,13.8,13.2,21.6c1.3,3.4,1.8,7,2.3,10.6c0.5,4.4,0.8,8.9,0.7,13.4
	c-0.1,8.5-0.9,17.6-4.4,25.5l-24.3,17.7C69.6,333.5,62.1,338.6,64.5,330.4z M157.4,405.7c-2.9-7.7-6.9-15-11.5-21.7
	c-5.6-8.1-12.2-15.8-20.2-21.6c-8.2-5.9-17.7-9.9-27.4-12.6c-7.4-2.1-14.9-3.9-22.6-3.9c-8.5,0-2.1-6.2-2.1-6.2l23.7-17.2
	c8.3-1.3,17,0.5,25,2.7c7.9,2.3,16.4,5.2,23.1,10.1c6.3,4.5,11.5,11.2,15.9,17.5c4.9,6.9,9.4,14.7,11.1,23.1l-9.5,29.1
	C162.8,404.9,160.1,412.7,157.4,405.7z M275.6,410.5c-6.6-3.7-13.2-7.3-20.2-9.9c-9.6-3.6-19.9-6-30.2-6h-0.1
	c-10.3,0-20.6,2.5-30.2,6.1c-7.4,2.8-14.6,6.3-21.2,10.6c-6.5,4.2-4.2-3.8-4.2-3.8l9.4-28.8c6-5.8,14.1-9.5,21.9-12.3
	c7.6-2.7,16.1-5.3,24.3-5.3h0c7.8,0,15.9,2.3,23.2,4.8c8,2.8,16.3,6.4,22.5,12.2l9.5,29.4C280.4,407.5,282.5,414.4,275.6,410.5z
	 M375.7,345.4c-8.5,0-16.9,2-25.1,4.5c-7.4,2.2-14.7,5.2-21.3,9.2c-6,3.7-11.4,8.3-16.1,13.6c-8.4,9.3-15.5,20.1-19.8,31.9
	c-2.7,7.4-6.2,0.1-6.2,0.1l-9.2-28.3c1.5-8.4,5.9-16.2,10.7-23.1c4.5-6.6,9.9-13.5,16.4-18.3c6.3-4.6,14.2-7.4,21.6-9.7
	c8.2-2.5,17.2-4.4,25.8-3.3l25.1,18.3C377.5,340.3,382.2,345.4,375.7,345.4z M419.4,232c-5.3,4.5-10.4,9.1-14.8,14.2
	c-10.6,12.3-18.7,26.7-20.9,42.9c-2,13.9-0.8,28.4,2.8,42.1c2.4,9.1-5.7,2.6-5.7,2.6l-23.4-17c0-0.1-0.1-0.2-0.1-0.3v0
	c-3.9-7.6-4.9-16.7-5.2-25.2c-0.3-8-0.1-16.9,2.4-24.6c2.4-7.4,7.1-14.4,11.7-20.6c5-6.7,10.9-13.3,18.2-17.5H418
	C418,228.6,424,228,419.4,232z M419.7,221.4h-34c-7.4-3.8-13.4-10.3-18.5-16.8c-5-6.4-9.9-13.5-12.6-21.2c-1.2-3.4-1.8-7.1-2.2-10.7
	c-0.5-4.4-0.7-8.9-0.6-13.4c0.1-8.5,1-17.5,4.6-25.3l27.6-20.1c0,0,4-2.3,2.5,2.7c-4.2,14.2-5.2,29.6-2.9,44.2
	c2.4,16,10.5,30.2,21,42.3c4.8,5.5,10.3,10.7,16.3,15.2C424.1,220.6,419.7,221.4,419.7,221.4z"/>
</svg>
